<svg xmlns="http://www.w3.org/2000/svg" width="74.959" height="20" viewBox="0 0 74.959 20">
  <g id="logo" transform="translate(-150 -54)">
    <path id="manero" d="M0,12.556V.14H1.8l4.691,10.69H5.633L10.289.14h1.8V12.556H10.079l-.017-9.19.593.14L6.784,12.556H5.3L1.343,3.505l.628-.14.017,9.19Z" transform="translate(150 61.305)" fill="#111"/>
    <path id="manero-2" data-name="manero" d="M15.705,12.556H13.438L19.053.14h1.831L26.5,12.556H24.268L19.7,1.883h.61Zm.209-2.912L16.769,7.9H23.1l.82,1.744Z" transform="translate(150 61.305)" fill="#111"/>
    <path id="manero-3" data-name="manero" d="M27.843,12.556V.14h1.674l7.15,9.295-.471.244V.14h2.11V12.556H36.614L29.5,3.3l.453-.279v9.539Z" transform="translate(150 61.305)" fill="#111"/>
    <path id="manero-4" data-name="manero" d="M41.007,12.556V.14h8.3V1.9H43.2V5.354h5.755V7.132H43.2v3.662h6.1v1.761Z" transform="translate(150 61.305)" fill="#111"/>
    <path id="manero-5" data-name="manero" d="M51.378,12.556V.14H56.7a4.867,4.867,0,0,1,3.209.924A3.27,3.27,0,0,1,61,3.714,3.278,3.278,0,0,1,59.871,6.33a4.74,4.74,0,0,1-3.156.959l1.4-.279a1.854,1.854,0,0,1,1.151.384,2.548,2.548,0,0,1,.8,1.186L61.6,12.556H59.225L57.656,8.423a1.426,1.426,0,0,0-.7-.82,2.536,2.536,0,0,0-1.1-.209H53.593v5.162Zm2.2-6.906h2.808a3.029,3.029,0,0,0,1.883-.471,1.694,1.694,0,0,0,.593-1.413,1.665,1.665,0,0,0-.593-1.413A3.117,3.117,0,0,0,56.383,1.9H53.575Z" transform="translate(150 61.305)" fill="#111"/>
    <path id="manero-6" data-name="manero" d="M69.048,12.7a6.157,6.157,0,0,1-3.139-.767,5.117,5.117,0,0,1-2.04-2.2,7.482,7.482,0,0,1-.715-3.383,7.414,7.414,0,0,1,.715-3.383,5.117,5.117,0,0,1,2.04-2.2,6.84,6.84,0,0,1,6.3,0,5.117,5.117,0,0,1,2.04,2.2,7.372,7.372,0,0,1,.715,3.366,7.374,7.374,0,0,1-.732,3.4,5.117,5.117,0,0,1-2.04,2.2A6.1,6.1,0,0,1,69.048,12.7Zm0-1.779a3.312,3.312,0,0,0,2.686-1.168A5.253,5.253,0,0,0,72.71,6.33a5.106,5.106,0,0,0-.977-3.383,3.651,3.651,0,0,0-5.354,0A5.106,5.106,0,0,0,65.4,6.33a5.253,5.253,0,0,0,.977,3.418A3.293,3.293,0,0,0,69.048,10.916Z" transform="translate(150 61.305)" fill="#111"/>
    <path id="Rectangle_27_Stroke_" data-name="Rectangle 27 (Stroke)" d="M7.508.581h-6.3a.63.63,0,0,0,0,1.259h6.3a.63.63,0,0,0,0-1.259ZM1.211,0a1.211,1.211,0,0,0,0,2.422h6.3A1.211,1.211,0,0,0,7.508,0Z" transform="translate(182.912 54)" fill="#111"/>
  </g>
</svg>
